<?xml version="1.0" encoding="UTF-8" standalone="no"?>
<!DOCTYPE svg PUBLIC "-//W3C//DTD SVG 1.1//EN"
 "http://www.w3.org/Graphics/SVG/1.1/DTD/svg11.dtd">
<!-- Generated by graphviz version 2.47.0 (20210316.0004)
 -->
<!-- Title: dependencies Pages: 1 -->
<svg width="504pt" height="287pt"
 viewBox="0.00 0.00 504.00 287.00" xmlns="http://www.w3.org/2000/svg" xmlns:xlink="http://www.w3.org/1999/xlink">
<g id="graph0" class="graph" transform="scale(1 1) rotate(0) translate(4 283)">
<title>dependencies</title>
<polygon fill="white" stroke="transparent" points="-4,4 -4,-283 500,-283 500,4 -4,4"/>
<text text-anchor="start" x="227.01" y="-42.4" font-family="Times-12" font-weight="bold" font-size="14.00">Legend</text>
<polygon fill="#ffffb3" stroke="transparent" points="14,-10 14,-30 34,-30 34,-10 14,-10"/>
<text text-anchor="start" x="37.63" y="-15.4" font-family="Times-12" font-size="14.00"> &#160;Declarations</text>
<polygon fill="#8dd3c7" stroke="transparent" points="127,-10 127,-30 147,-30 147,-10 127,-10"/>
<text text-anchor="start" x="150.73" y="-15.4" font-family="Times-12" font-size="14.00"> &#160;Module</text>
<polygon fill="#80b1d3" stroke="transparent" points="213,-10 213,-30 233,-30 233,-10 213,-10"/>
<text text-anchor="start" x="236.78" y="-15.4" font-family="Times-12" font-size="14.00"> &#160;Bootstrap</text>
<polygon fill="#fdb462" stroke="transparent" points="310,-10 310,-30 330,-30 330,-10 310,-10"/>
<text text-anchor="start" x="333.67" y="-15.4" font-family="Times-12" font-size="14.00"> &#160;Providers</text>
<polygon fill="#fb8072" stroke="transparent" points="406,-10 406,-30 426,-30 426,-10 406,-10"/>
<text text-anchor="start" x="429.73" y="-15.4" font-family="Times-12" font-size="14.00"> &#160;Exports</text>
<g id="clust1" class="cluster">
<title>cluster_AppModule</title>
<polygon fill="none" stroke="black" stroke-dasharray="1,5" points="126,-146 126,-271 374,-271 374,-146 126,-146"/>
</g>
<g id="clust3" class="cluster">
<title>cluster_AppModule_imports</title>
<polygon fill="none" stroke="black" points="134,-154 134,-206 366,-206 366,-154 134,-154"/>
</g>
<g id="clust7" class="cluster">
<title>cluster_ErrorLogModule</title>
<polygon fill="none" stroke="black" stroke-dasharray="1,5" points="78,-70 78,-138 262,-138 262,-70 78,-70"/>
</g>
<g id="clust12" class="cluster">
<title>cluster_ErrorLogModule_providers</title>
<polygon fill="none" stroke="black" points="86,-78 86,-130 254,-130 254,-78 86,-78"/>
</g>
<g id="clust13" class="cluster">
<title>cluster_UserModule</title>
<polygon fill="none" stroke="black" stroke-dasharray="1,5" points="270,-70 270,-138 418,-138 418,-70 270,-70"/>
</g>
<g id="clust18" class="cluster">
<title>cluster_UserModule_providers</title>
<polygon fill="none" stroke="black" points="278,-78 278,-130 410,-130 410,-78 278,-78"/>
</g>
<!-- ErrorLogModule -->
<g id="node1" class="node">
<title>ErrorLogModule</title>
<polygon fill="#8dd3c7" stroke="black" points="253.64,-198 250.64,-202 229.64,-202 226.64,-198 142.36,-198 142.36,-162 253.64,-162 253.64,-198"/>
<text text-anchor="middle" x="198" y="-175.8" font-family="Times,serif" font-size="14.00">ErrorLogModule</text>
</g>
<!-- AppModule -->
<g id="node3" class="node">
<title>AppModule</title>
<polygon fill="#8dd3c7" stroke="black" points="297.66,-263 294.66,-267 273.66,-267 270.66,-263 214.34,-263 214.34,-227 297.66,-227 297.66,-263"/>
<text text-anchor="middle" x="256" y="-240.8" font-family="Times,serif" font-size="14.00">AppModule</text>
</g>
<!-- ErrorLogModule&#45;&gt;AppModule -->
<g id="edge1" class="edge">
<title>ErrorLogModule&#45;&gt;AppModule</title>
<path fill="none" stroke="black" d="M234,-198.11C234,-198.11 234,-216.99 234,-216.99"/>
<polygon fill="black" stroke="black" points="230.5,-216.99 234,-226.99 237.5,-216.99 230.5,-216.99"/>
</g>
<!-- UserModule -->
<g id="node2" class="node">
<title>UserModule</title>
<polygon fill="#8dd3c7" stroke="black" points="357.98,-198 354.98,-202 333.98,-202 330.98,-198 272.02,-198 272.02,-162 357.98,-162 357.98,-198"/>
<text text-anchor="middle" x="315" y="-175.8" font-family="Times,serif" font-size="14.00">UserModule</text>
</g>
<!-- UserModule&#45;&gt;AppModule -->
<g id="edge2" class="edge">
<title>UserModule&#45;&gt;AppModule</title>
<path fill="none" stroke="black" d="M284.92,-198.11C284.92,-198.11 284.92,-216.99 284.92,-216.99"/>
<polygon fill="black" stroke="black" points="281.42,-216.99 284.92,-226.99 288.42,-216.99 281.42,-216.99"/>
</g>
<!-- ErrorLogService -->
<g id="node4" class="node">
<title>ErrorLogService</title>
<ellipse fill="#fdb462" stroke="black" cx="170" cy="-104" rx="75.84" ry="18"/>
<text text-anchor="middle" x="170" y="-99.8" font-family="Times,serif" font-size="14.00">ErrorLogService</text>
</g>
<!-- ErrorLogService&#45;&gt;ErrorLogModule -->
<g id="edge3" class="edge">
<title>ErrorLogService&#45;&gt;ErrorLogModule</title>
<path fill="none" stroke="black" d="M194.05,-121.25C194.05,-121.25 194.05,-151.76 194.05,-151.76"/>
<polygon fill="black" stroke="black" points="190.55,-151.76 194.05,-161.76 197.55,-151.76 190.55,-151.76"/>
</g>
<!-- UserService -->
<g id="node5" class="node">
<title>UserService</title>
<ellipse fill="#fdb462" stroke="black" cx="344" cy="-104" rx="58.44" ry="18"/>
<text text-anchor="middle" x="344" y="-99.8" font-family="Times,serif" font-size="14.00">UserService</text>
</g>
<!-- UserService&#45;&gt;UserModule -->
<g id="edge4" class="edge">
<title>UserService&#45;&gt;UserModule</title>
<path fill="none" stroke="black" d="M321.88,-120.87C321.88,-120.87 321.88,-151.85 321.88,-151.85"/>
<polygon fill="black" stroke="black" points="318.38,-151.85 321.88,-161.85 325.38,-151.85 318.38,-151.85"/>
</g>
</g>
</svg>
